<?xml version="1.0" encoding="utf-8"?>
<svg xmlns="http://www.w3.org/2000/svg" viewBox="98 82 42 24" shape-rendering="geometricPrecision">
  <g transform="rotate(180, 119, 94) matrix(1, 0, 0, 1, -33.033226, -35.080212)" stroke="#ffffff" fill="none" stroke-linecap="round" stroke-linejoin="round" style="stroke-width: 0.3px;">
    <polyline points="169.480634,129.05988 169.480634,129.15988 169.980634,129.15988 169.980634,129.05988 170.230634,129.05988 170.230634,129.45988 169.980634,129.45988 169.980634,129.35988 169.480634,129.35988 169.480634,129.45988 169.230634,129.45988 169.230634,129.05988 169.480634,129.05988 169.832845,129.05988 169.980634,129.05988"/>
    <polyline points="169.230634,129.45988 142.245906,129.45988 142.245906,129.05988 169.230634,129.05988"/>
    <polyline points="169.832845,129.05988 169.832845,129.15988"/>
    <polyline points="139.745906,129.05988 142.245906,129.05988"/>
    <polyline points="169.832845,129.45988 169.980634,129.45988"/>
    <polyline points="169.832845,129.45988 169.832845,129.35988"/>
    <polyline points="169.480634,129.45988 169.832845,129.45988"/>
    <polyline points="142.245906,129.45988 139.745906,129.45988 139.745906,129.05988"/>
    <polyline points="137.195906,121.25988 139.036579,118.75988 142.292025,118.75988 142.301668,118.75988"/>
    <polyline points="142.292749,121.25988 142.292025,118.75988"/>
    <polyline points="142.301668,121.25988 142.292749,121.25988 142.963511,123.75988"/>
    <polyline points="135.679439,121.25988 139.036579,118.75988"/>
    <polyline points="137.195906,121.25988 135.679439,121.25988 134.695906,121.992113 134.695906,123.389029 134.695906,123.75988 139.695906,123.75988"/>
    <polyline points="133.059686,127.848075 138.832127,126.830238 138.832127,127.993541 135.890573,128.512217 133.059686,128.512217 133.059686,127.848075 133.196451,127.967384 133.196451,128.503858 135.937977,128.503858"/>
    <polyline points="133.196451,128.503858 133.059686,128.512217"/>
    <polyline points="138.796136,126.980008 138.832127,126.830238"/>
    <polyline points="133.196451,127.967384 138.796136,126.980008 138.796136,127.999888"/>
    <polyline points="139.695906,125.99661 132.195906,127.319063 132.195906,129.25988"/>
    <polyline points="139.695906,132.52315 132.195906,131.200698 132.195906,129.25988 135.514321,129.25988 139.695906,128.522554 141.195906,127.384426 139.695906,127.274871 139.695906,122.48488 139.891558,122.455532"/>
    <polyline points="139.695906,128.522554 139.695906,129.00988 144.0368,129.00988 163.195906,129.009879 165.064741,129.00988 170.240343,129.00988 170.859836,129.25988 171.695906,129.25988"/>
    <polyline points="166.520538,120.435324 168.912172,119.56484 169.767223,121.914072 170.990034,120.888011"/>
    <polyline points="156.282866,122.985481 156.854073,128.25988"/>
    <polyline points="155.537739,128.25988 156.107624,122.997692 156.162031,122.75988"/>
    <polyline points="156.162031,122.75988 156.231681,122.75988 156.282866,122.985481"/>
    <polyline points="153.305783,123.452737 154.146152,122.75988 153.6777,123.441178 153.960489,123.75988 154.44783,128.25988 154.943983,128.25988 155.431323,123.75988 156.107624,122.997692"/>
    <polyline points="152.537739,128.25988 153.02508,123.75988 153.366732,123.75988"/>
    <polyline points="153.366732,123.75988 153.854073,128.25988"/>
    <polyline points="153.960489,123.75988 155.431323,123.75988"/>
    <polyline points="154.146152,122.75988 156.162031,122.75988"/>
    <polyline points="170.990034,120.888011 170.508439,119.56484 168.912172,119.56484"/>
    <polyline points="169.710517,127.754951 170.16933,128.442043 171.732239,129.072764 171.695906,129.25988 171.732239,129.446996"/>
    <polyline points="169.700449,128.792003 170.240343,129.00988"/>
    <polyline points="141.195906,127.384426 141.195906,123.75988 142.963511,123.75988 143.198933,123.995203"/>
    <polyline points="144.819145,123.995203 144.819145,124.97146 144.009039,126.39425 143.198933,124.97146 143.198933,123.995203 143.561625,124.092322"/>
    <polyline points="145.695906,123.75988 145.054567,123.75988 145.725328,121.25988"/>
    <polyline points="154.44783,128.25988 145.695906,128.25988"/>
    <polyline points="163.695906,128.25988 154.943983,128.25988"/>
    <polyline points="163.695906,128.25988 163.695906,124.25988 163.897037,124.128619"/>
    <polyline points="164.587441,124.247974 164.406433,125.062512 163.897037,124.128619 163.695906,123.75988"/>
    <polyline points="166.722008,126.427835 166.865243,125.929202 166.266995,123.75988 165.015705,123.75988 165.165753,123.58887"/>
    <polyline points="169.700449,128.792003 169.723118,126.456972 169.727972,125.956995"/>
    <polyline points="169.727972,125.956995 169.735931,125.137255 169.74259,124.451273"/>
    <polyline points="165.165753,123.58887 169.767223,121.914072 169.754157,123.25988 169.74259,124.451273 168.498759,123.25988"/>
    <polyline points="167.119824,125.85897 167.450265,125.76781 169.727972,125.76781 169.735931,125.137255"/>
    <polyline points="167.384017,125.934239 167.560391,125.935951 167.841029,125.938676 169.727972,125.956995"/>
    <polyline points="167.488392,123.75988 167.028394,125.361237"/>
    <polyline points="169.444954,124.858546 168.297931,123.75988 167.488392,123.75988 167.1118,123.25988 166.875056,124.084039"/>
    <polyline points="137.195906,121.75988 135.639187,121.75988 135.195906,122.089899 135.195906,122.840905 137.195906,122.528538"/>
    <polyline points="134.695906,123.389029 137.195906,122.99857 137.195906,122.455532"/>
    <polyline points="144.319145,124.839091 144.819145,124.97146"/>
    <polyline points="144.319145,124.31112 144.319145,124.839091 144.009039,125.383731"/>
    <polyline points="144.397747,124.31112 144.456452,124.092322 144.819145,123.995203"/>
    <polyline points="144.009039,125.383731 144.009039,126.39425"/>
    <polyline points="143.698933,124.839091 143.198933,124.97146"/>
    <polyline points="144.009039,125.383731 143.698933,124.839091 143.698933,124.31112"/>
    <polyline points="143.698933,124.31112 143.62033,124.31112 143.561625,124.092322 142.931238,121.7428"/>
    <polyline points="168.498759,123.25988 168.297931,123.75988"/>
    <polyline points="168.498759,123.25988 169.754157,123.25988"/>
    <polyline points="166.875056,124.084039 166.865243,125.929202"/>
    <polyline points="166.875056,124.084039 166.647772,123.25988 166.266995,123.75988"/>
    <polyline points="166.647772,123.25988 167.1118,123.25988"/>
    <polyline points="144.456452,124.092322 145.086839,121.7428 145.716409,121.25988"/>
    <polyline points="145.725328,121.25988 145.716409,121.25988"/>
    <polyline points="141.195906,123.75988 139.891558,122.455532 137.195906,122.455532"/>
    <polyline points="137.195906,122.455532 137.195906,121.25988"/>
    <polyline points="146.495583,121.75988 147.394615,121.75988 146.814114,121.25988 146.064921,121.25988 146.495583,121.75988 146.269998,123.2654"/>
    <polyline points="145.725328,121.25988 146.064921,121.25988"/>
    <polyline points="147.6202,123.2654 147.394615,121.75988"/>
    <polyline points="163.121814,124.25988 163.695906,124.25988"/>
    <polyline points="163.588784,123.75988 163.121814,124.25988 161.771612,124.25988 162.19752,123.7654 162.203102,123.75988 163.588784,123.75988 163.695906,123.75988"/>
    <polyline points="163.121814,124.25988 163.121814,128.25988"/>
    <polyline points="161.771612,128.25988 161.771612,124.25988"/>
    <polyline points="142.931238,121.7428 142.301668,121.25988"/>
    <polyline points="146.269998,123.2654 145.695906,123.75988"/>
    <polyline points="135.195906,122.089899 137.195906,122.089899"/>
    <polyline points="147.6202,123.2654 147.6202,128.25988"/>
    <polyline points="146.269998,128.25988 146.269998,123.2654"/>
    <polyline points="137.195906,137.25988 139.036579,139.75988 142.292025,139.75988 142.301668,139.75988"/>
    <polyline points="142.292749,137.25988 142.292025,139.75988"/>
    <polyline points="142.301668,137.25988 142.292749,137.25988 142.963511,134.75988"/>
    <polyline points="135.679439,137.25988 139.036579,139.75988"/>
    <polyline points="137.195906,137.25988 135.679439,137.25988 134.695906,136.527647 134.695906,135.130731 134.695906,134.75988 139.695906,134.75988"/>
    <polyline points="133.059686,130.671685 138.832127,131.689522 138.832127,130.526219 135.890573,130.007543 133.059686,130.007543 133.059686,130.671685 133.196451,130.552376 133.196451,130.015902 135.937977,130.015902"/>
    <polyline points="133.196451,130.015902 133.059686,130.007543"/>
    <polyline points="133.196451,130.552376 138.796136,131.539752 138.832127,131.689522"/>
    <polyline points="138.796136,131.539752 138.796136,130.519873"/>
    <polyline points="135.514321,129.25988 139.695906,129.997206 141.195906,131.135334"/>
    <polyline points="141.195906,131.135334 139.695906,131.24489 139.695906,136.03488 139.891558,136.064228"/>
    <polyline points="170.240343,129.50988 170.859836,129.25988"/>
    <polyline points="139.695906,129.00988 139.695906,129.50988 144.0368,129.50988 163.195906,129.50988 165.064741,129.509881 170.240343,129.50988"/>
    <polyline points="166.520538,138.084436 166.093586,137.929038"/>
    <polyline points="166.520538,138.084436 168.912172,138.95492 170.508439,138.95492"/>
    <polyline points="156.282866,135.534279 156.854073,130.25988"/>
    <polyline points="156.282866,135.534279 156.231681,135.75988 156.162031,135.75988 156.107624,135.522068 155.537739,130.25988"/>
    <polyline points="153.305783,135.067024 154.146152,135.75988 153.6777,135.078582 153.960489,134.75988 155.431323,134.75988"/>
    <polyline points="152.537739,130.25988 153.02508,134.75988 153.366732,134.75988"/>
    <polyline points="153.366732,134.75988 153.854073,130.25988"/>
    <polyline points="156.107624,135.522068 155.431323,134.75988 154.943983,130.25988"/>
    <polyline points="154.44783,130.25988 153.960489,134.75988"/>
    <polyline points="163.695906,130.25988 154.943983,130.25988 154.44783,130.25988 145.695906,130.25988"/>
    <polyline points="154.146152,135.75988 156.162031,135.75988"/>
    <polyline points="170.990034,137.631749 170.508439,138.95492"/>
    <polyline points="169.767223,136.605688 168.912172,138.95492"/>
    <polyline points="169.767223,136.605688 170.990034,137.631749"/>
    <polyline points="169.710517,130.764809 170.16933,130.077717 171.732239,129.446996"/>
    <polyline points="169.700449,129.727758 170.240343,129.50988"/>
    <polyline points="169.700449,129.727758 169.723118,132.062789 169.727972,132.562765"/>
    <polyline points="166.722008,132.091925 166.865243,132.590558 166.266995,134.75988"/>
    <polyline points="167.1118,135.25988 166.875056,134.435721 166.647772,135.25988 166.266995,134.75988 165.015705,134.75988 164.587441,134.271787 164.406433,133.457248"/>
    <polyline points="164.406433,133.457248 163.897037,134.391141 163.695906,134.25988 163.121814,134.25988 163.588784,134.75988 163.695906,134.75988 163.897037,134.391141"/>
    <polyline points="145.695906,134.75988 145.695906,130.25988"/>
    <polyline points="146.495583,136.75988 147.394615,136.75988 146.814114,137.25988 146.064921,137.25988 146.495583,136.75988 146.269998,135.25436 145.695906,134.75988 145.054567,134.75988 144.819145,134.524557 144.819145,133.548301"/>
    <polyline points="144.319145,134.20864 144.319145,133.680669 144.819145,133.548301 144.009039,132.12551 143.198933,133.548301"/>
    <polyline points="144.319145,133.680669 144.009039,133.136029 143.698933,133.680669 143.198933,133.548301 143.198933,134.524557 142.963511,134.75988 141.195906,134.75988"/>
    <polyline points="139.695906,129.997206 139.695906,129.50988"/>
    <polyline points="165.165753,134.93089 169.767223,136.605688 169.754157,135.25988 169.74259,134.068487"/>
    <polyline points="167.384017,132.585521 167.560391,132.583809 167.841029,132.581084 169.727972,132.562765 169.735931,133.382505 169.74259,134.068487 168.498759,135.25988"/>
    <polyline points="167.119824,132.66079 167.450265,132.75195 169.727972,132.75195 169.727972,132.562765"/>
    <polyline points="169.735931,133.382505 169.727972,132.75195"/>
    <polyline points="169.444954,133.661214 168.297931,134.75988 167.488392,134.75988"/>
    <polyline points="167.488392,134.75988 167.028394,133.158523"/>
    <polyline points="163.588784,134.75988 162.203102,134.75988 162.19752,134.75436 161.771612,134.25988"/>
    <polyline points="134.695906,135.130731 137.195906,135.52119 137.195906,136.064228"/>
    <polyline points="135.195906,135.678856 137.195906,135.991223"/>
    <polyline points="135.195906,135.678856 135.195906,136.429861 135.639187,136.75988"/>
    <polyline points="137.195906,136.75988 135.639187,136.75988"/>
    <polyline points="144.819145,134.524557 144.456452,134.427438 144.397747,134.20864"/>
    <polyline points="144.009039,133.136029 144.009039,132.12551"/>
    <polyline points="143.698933,133.680669 143.698933,134.20864 143.62033,134.20864"/>
    <polyline points="143.62033,134.20864 143.561625,134.427438 143.198933,134.524557"/>
    <polyline points="168.498759,135.25988 168.297931,134.75988"/>
    <polyline points="168.498759,135.25988 169.754157,135.25988"/>
    <polyline points="166.875056,134.435721 166.865243,132.590558"/>
    <polyline points="143.698933,134.20864 144.319145,134.20864"/>
    <polyline points="166.647772,135.25988 167.1118,135.25988"/>
    <polyline points="144.456452,134.427438 145.086839,136.77696 145.716409,137.25988"/>
    <polyline points="145.054567,134.75988 145.725328,137.25988 145.716409,137.25988"/>
    <polyline points="141.195906,134.75988 139.891558,136.064228 137.195906,136.064228"/>
    <polyline points="137.195906,136.064228 137.195906,137.25988"/>
    <polyline points="145.725328,137.25988 146.064921,137.25988"/>
    <polyline points="147.6202,135.25436 147.394615,136.75988"/>
    <polyline points="161.771612,130.25988 161.771612,134.25988 163.121814,134.25988 163.121814,130.25988"/>
    <polyline points="165.015705,134.75988 165.165753,134.93089"/>
    <polyline points="143.561625,134.427438 142.931238,136.77696 142.301668,137.25988"/>
    <polyline points="135.195906,136.429861 137.195906,136.429861"/>
    <polyline points="147.6202,135.25436 147.6202,130.25988"/>
    <polyline points="146.269998,130.25988 146.269998,135.25436"/>
    <polyline points="164.445906,126.00988 164.445906,125.88488"/>
    <polyline points="164.945906,125.88488 164.945906,126.00988 164.945906,127.25988"/>
    <polyline points="165.81474,126.00988 165.81474,125.88488"/>
    <polyline points="166.31474,125.88488 166.31474,126.00988 166.31474,127.75988"/>
    <polyline points="142.2868,126.00988 142.2868,125.88488"/>
    <polyline points="142.7868,125.88488 142.7868,126.00988 142.7868,127.25988"/>
    <polyline points="164.420652,128.509879 165.064741,128.509879"/>
    <polyline points="165.81474,127.75988 165.81474,126.00988"/>
    <polyline points="142.2868,126.00988 142.2868,127.25988"/>
    <polyline points="144.0368,128.50988 163.195906,128.50988"/>
    <polyline points="164.445906,127.25988 164.445906,126.00988"/>
    <polyline points="164.445906,132.63488 164.445906,132.50988 164.445906,131.25988"/>
    <polyline points="164.945906,132.50988 164.945906,132.63488"/>
    <polyline points="165.81474,132.63488 165.81474,132.50988 165.81474,130.75988"/>
    <polyline points="166.31474,132.50988 166.31474,132.63488"/>
    <polyline points="142.2868,132.63488 142.2868,132.50988 142.2868,131.25988"/>
    <polyline points="142.7868,132.50988 142.7868,132.63488"/>
    <polyline points="165.064741,130.009881 164.420652,130.009881"/>
    <polyline points="166.31474,132.50988 166.31474,130.75988"/>
    <polyline points="142.7868,131.25988 142.7868,132.50988"/>
    <polyline points="163.195906,130.00988 144.0368,130.00988"/>
    <polyline points="164.945906,132.50988 164.945906,131.25988"/>
    <path d="M 165.9914817712433 120.7120407297307 C 166.025615473005 120.6716887142756 166.0596525789751 120.6312481761542 166.0935864531711 120.5907216253317"/>
    <path d="M 165.9914817712433 120.7120407297307 C 165.9914817712433 120.7120407297307 165.9914817712433 120.7120407297307 165.6516302768271 121.89607863380665 C 165.9065188975755 121.0080502059727 165.6516302767134 121.89607863420277 165.6516302767134 121.89607863420277 C 165.65163027662814 121.89607863449984 165.65163027662814 121.89607863449984 165.52418596616198 122.34009284873905 C 165.6516302765713 121.8960786346979 165.52418596611935 122.3400928488876 165.52418596611935 122.3400928488876 C 165.52418596607671 122.34009284903614 165.52418596607671 122.34009284903614 165.52418596607671 122.34009284903614 C 165.4817045292357 122.4880975871819 165.4817045292357 122.4880975871819 165.23427016320213 123.3501554947363 C 165.4106460129806 122.7356644745896 165.23427016310316 123.35015549508113 165.23427016310316 123.35015549508113 C 165.23427016303262 123.35015549532693 165.23427016303262 123.35015549532693 165.18886724866059 123.50833862076557"/>
    <path d="M 153.0250803292029 123.7598800592786 C 153.1155533134379 123.6597955461084 153.2136526721324 123.5520562891042 153.305783028336 123.4527365751928"/>
    <path d="M 153.6777003759534 123.441178425026 C 153.5774818460322 123.5460052777971 153.4669549608106 123.6586589837479 153.3667321060666 123.7598800592786"/>
    <path d="M 169.4674135902478 125.334687088346 C 169.4674135902478 125.334687088346 169.4674135902478 125.334687088346 169.58065280418745 125.19714023205631 C 169.5129311497266 125.3046248674281 169.58065280443515 125.19714023175544 169.58065280443515 125.19714023175544 C 169.58065280458328 125.19714023152032 169.58065280458328 125.19714023152032 169.58805740912112 125.13380841875879 C 169.5806528046587 125.1971402313647 169.58805740914335 125.13380841856865 169.58805740914335 125.13380841856865 C 169.58805740916557 125.1338084183785 169.58805740916557 125.1338084183785 169.5676577039625 125.0308127105785 C 169.5870896901488 125.0934124124069 169.5676577038914 125.03081271021954 169.5676577038914 125.03081271021954 C 169.56765770382367 125.03081271000136 169.56765770382367 125.03081271000136 169.5186049485082 124.94253325333817 C 169.5537332662406 124.996982020888 169.5186049483087 124.94253325297917 169.5186049483087 124.94253325297917 C 169.51860494816586 124.94253325275776 169.51860494816586 124.94253325275776 169.45776049939127 124.87081262569195"/>
    <path d="M 167.0283942894111 125.3612367347477 C 167.0283942894111 125.3612367347477 167.0283942894111 125.3612367347477 167.00726935450203 125.54608215699214 C 167.0147377582261 125.408778224587 167.00726935443086 125.54608215761496 167.00726935443086 125.54608215761496 C 167.0072693544057 125.5460821580776 167.0072693544057 125.5460821580776 167.02504771491766 125.61717066558403 C 167.0072693544071 125.5460821583765 167.02504771498678 125.6171706658605 167.02504771498678 125.6171706658605 C 167.0250477150559 125.61717066613697 167.0250477150559 125.61717066613697 167.0815849316099 125.71283193569093 C 167.0383309424205 125.654761245938 167.0815849318272 125.71283193605858 167.0815849318272 125.71283193605858 C 167.0815849319934 125.71283193628176 167.0815849319934 125.71283193628176 167.1805786367343 125.77976706114906 C 167.1064773474945 125.7406960104199 167.18057863703322 125.77976706135117 167.18057863703322 125.77976706135117 C 167.18057863725699 125.77976706146913 167.18057863725699 125.77976706146913 167.27422314227806 125.80253219273547 C 167.21217900798 125.792912409096 167.27422314256575 125.80253219280542 167.27422314256575 125.80253219280542 C 167.27422314275634 125.80253219283497 167.27422314275634 125.80253219283497 167.30935327153563 125.80456544905546"/>
    <path d="M 169.7359305946356 125.1372553780311 C 169.6476406309402 125.2088563841134 169.5582307996401 125.274706565594 169.4674135902478 125.334687088346"/>
    <path d="M 165.9914817712433 137.8077193888266 C 166.025615473005 137.8480714042816 166.0596525789751 137.888511942403 166.0935864531711 137.9290384932255"/>
    <path d="M 165.9914817712433 137.8077193888266 C 165.9914817712433 137.8077193888266 165.9914817712433 137.8077193888266 165.6516302768271 136.62368148475065 C 165.9065188975755 137.5117099125846 165.6516302767134 136.62368148435453 165.6516302767134 136.62368148435453 C 165.65163027662814 136.62368148405744 165.65163027662814 136.62368148405744 165.52418596616198 136.17966726981814 C 165.6516302765713 136.6236814838594 165.52418596611935 136.1796672696696 165.52418596611935 136.1796672696696 C 165.52418596607671 136.17966726952108 165.52418596607671 136.17966726952108 165.52418596607671 136.17966726952108 C 165.4817045292357 136.0316625313753 165.4817045292357 136.0316625313753 165.23427016320213 135.169604623821 C 165.4106460129806 135.7840956439677 165.23427016310316 135.16960462347615 165.23427016310316 135.16960462347615 C 165.23427016303262 135.16960462323036 165.23427016303262 135.16960462323036 165.18886724866059 135.01142149779173"/>
    <path d="M 153.0250803292029 134.7598800592786 C 153.1155533134379 134.8599645724489 153.2136526721324 134.967703829453 153.305783028336 135.0670235433645"/>
    <path d="M 153.6777003759534 135.0785816935313 C 153.5774818460322 134.9737548407602 153.4669549608106 134.8611011348093 153.3667321060666 134.7598800592786"/>
    <path d="M 169.4674135902478 133.1850730302112 C 169.4674135902478 133.1850730302112 169.4674135902478 133.1850730302112 169.58065280418745 133.32261988650092 C 169.5129311497266 133.2151352511291 169.58065280443515 133.3226198868018 169.58065280443515 133.3226198868018 C 169.58065280458328 133.3226198870369 169.58065280458328 133.3226198870369 169.58805740912112 133.38595169979843 C 169.5806528046587 133.3226198871925 169.58805740914335 133.38595169998857 169.58805740914335 133.38595169998857 C 169.58805740916557 133.3859517001787 169.58805740916557 133.3859517001787 169.5676577039625 133.4889474079788 C 169.5870896901488 133.4263477061504 169.5676577038914 133.48894740833776 169.5676577038914 133.48894740833776 C 169.56765770382367 133.48894740855593 169.56765770382367 133.48894740855593 169.5186049485082 133.57722686521907 C 169.5537332662406 133.5227780976693 169.5186049483087 133.57722686557807 169.5186049483087 133.57722686557807 C 169.51860494816586 133.57722686579947 169.51860494816586 133.57722686579947 169.45776049939127 133.64894749286532"/>
    <path d="M 167.0283942894111 133.1585233838095 C 167.0283942894111 133.1585233838095 167.0283942894111 133.1585233838095 167.00726935450203 132.97367796156516 C 167.0147377582261 133.1109818939703 167.00726935443086 132.97367796094233 167.00726935443086 132.97367796094233 C 167.0072693544057 132.9736779604797 167.0072693544057 132.9736779604797 167.02504771491766 132.9025894529732 C 167.0072693544071 132.9736779601808 167.02504771498678 132.90258945269673 167.02504771498678 132.90258945269673 C 167.0250477150559 132.90258945242027 167.0250477150559 132.90258945242027 167.0815849316099 132.80692818286633 C 167.0383309424205 132.8649988726192 167.0815849318272 132.8069281824987 167.0815849318272 132.8069281824987 C 167.0815849319934 132.80692818227553 167.0815849319934 132.80692818227553 167.1805786367343 132.7399930574082 C 167.1064773474945 132.7790641081374 167.18057863703322 132.7399930572061 167.18057863703322 132.7399930572061 C 167.18057863725699 132.73999305708813 167.18057863725699 132.73999305708813 167.27422314227806 132.71722792582173 C 167.21217900798 132.7268477094612 167.27422314256575 132.7172279257518 167.27422314256575 132.7172279257518 C 167.27422314275634 132.71722792572228 167.27422314275634 132.71722792572228 167.30935327153566 132.71519466950178"/>
    <path d="M 169.7359305946356 133.3825047405262 C 169.6476406309402 133.3109037344438 169.5582307996401 133.2450535529633 169.4674135902478 133.1850730302112"/>
  </g>
</svg>
